PathFileType	4	(X/Y/Z)	./resultDataOpenSim/trcMotMarkerGrf/sub06/qtm-14-07.trc
DataRate	CameraRate	NumFrames	NumMarkers	Units	OrigDataRate	OrigDataStartFrame	OrigNumFrames
250.000000	250.000000	5	24	m	250.000000	132	527
Frame#	Time	L.Toe.Tip			R.Toe.Tip			L.Ankle.Lat			R.Ankle.Lat			L.Ankle.Med			R.Ankle.Med			L.Heel			R.Heel			L.Knee.Lat			R.Knee.Lat			L.Knee.Med			R.Knee.Med			L.Thigh.Upper			R.Thigh.Upper			L.ASIS			R.ASIS			V.Sacral			L.Acromium			R.Acromium			C7			L.Elbow			R.Elbow			L.Wrist.Lat			R.Wrist.Lat
		X1	Y1	Z1	X2	Y2	Z2	X3	Y3	Z3	X4	Y4	Z4	X5	Y5	Z5	X6	Y6	Z6	X7	Y7	Z7	X8	Y8	Z8	X9	Y9	Z9	X10	Y10	Z10	X11	Y11	Z11	X12	Y12	Z12	X13	Y13	Z13	X14	Y14	Z14	X15	Y15	Z15	X16	Y16	Z16	X17	Y17	Z17	X18	Y18	Z18	X19	Y19	Z19	X20	Y20	Z20	X21	Y21	Z21	X22	Y22	Z22	X23	Y23	Z23	X24	Y24	Z24

132	0.524	-0.27070489	0.082961637	-0.072339104	-0.75582106	0.035511076	0.097947687	-0.39827719	0.088289638	-0.079045074	-0.88923125	0.071080419	0.10458962	-0.39018802	0.10640508	0.0055733437	-0.85871356	0.089166719	0.02146921	-0.45512431	0.042848203	-0.020989661	-0.93892124	0.052157679	0.035451295	-0.4319703	0.46260279	-0.088242503	-0.75360691	0.43507374	0.14957964	-0.44671699	0.45567948	0.034368928	-0.77689047	0.43655642	0.017946413	-0.61757765	0.81185845	-0.13125659	-0.68156056	0.79667452	0.22098925	-0.55635787	0.85298246	-0.074323996	-0.56836953	0.84234018	0.17121083	-0.73826532	0.93030398	0.047866586	-0.61052301	1.3335451	-0.13738297	-0.60041556	1.3217523	0.22024992	-0.67643259	1.3643953	0.043990654	-0.72096262	1.0360926	-0.1938229	-0.66794729	1.0157223	0.3225722	-0.59164068	0.82489777	-0.22118286	-0.44326433	0.89873018	0.32021529
133	0.528	-0.25189648	0.086304981	-0.070710274	-0.75576734	0.035411774	0.097880248	-0.3797192	0.088857548	-0.078779099	-0.8889526	0.071448481	0.10421823	-0.3729413	0.10701143	0.0056861106	-0.85823994	0.089145586	0.021070242	-0.43621628	0.042121556	-0.020705792	-0.93871734	0.052659746	0.035147074	-0.4249586	0.4612208	-0.087557923	-0.7502123	0.43425373	0.14928063	-0.43972842	0.45389229	0.035395546	-0.77329679	0.43583712	0.017630725	-0.61042879	0.80995374	-0.13111434	-0.67737627	0.79568728	0.22113413	-0.54950037	0.85094883	-0.074311645	-0.56248193	0.84042781	0.17151051	-0.73332783	0.92866421	0.047430163	-0.60418453	1.3314404	-0.1375293	-0.59440602	1.3199832	0.22028714	-0.66995532	1.3626382	0.043723451	-0.71565055	1.0345245	-0.19332103	-0.66049648	1.0138042	0.32321446	-0.58839047	0.82241122	-0.2217637	-0.43479503	0.89879042	0.31983537
134	0.532	-0.23346819	0.089837963	-0.069008219	-0.75570566	0.035339039	0.097814087	-0.36145352	0.08972429	-0.07854658	-0.88863545	0.071863384	0.10387756	-0.35597882	0.10786164	0.0057998336	-0.85772768	0.08917109	0.020706812	-0.41756157	0.041685675	-0.020664424	-0.93859036	0.053194841	0.035017896	-0.41790772	0.45976805	-0.086855472	-0.74685611	0.43337875	0.14890537	-0.4328232	0.45201186	0.036360447	-0.76955318	0.43508654	0.017345203	-0.60327752	0.80794966	-0.13099075	-0.67279217	0.79450811	0.22116774	-0.54263885	0.84884484	-0.074301115	-0.55652204	0.83848114	0.17177047	-0.72789162	0.92678121	0.046636896	-0.59780546	1.3292732	-0.13766785	-0.58835451	1.3181502	0.22033451	-0.66370131	1.360949	0.043489516	-0.71023481	1.0328799	-0.19285277	-0.65306615	1.0118394	0.32382375	-0.58503601	0.81988115	-0.22230903	-0.4263776	0.89875849	0.31945329
135	0.536	-0.2154733	0.093575214	-0.067277336	-0.75563777	0.035286855	0.097748898	-0.34358374	0.090846869	-0.07836697	-0.88829222	0.072309934	0.10357235	-0.33935432	0.10893379	0.0059352308	-0.85717799	0.08924526	0.020374085	-0.39915744	0.041478391	-0.0209313	-0.93844551	0.053786838	0.034874198	-0.41078667	0.45826142	-0.086129228	-0.74342886	0.43246887	0.14853977	-0.42594235	0.4500531	0.03729051	-0.76569038	0.43431107	0.017085733	-0.59618351	0.80584018	-0.13089064	-0.66783484	0.79314066	0.22107958	-0.53580159	0.84667132	-0.074284102	-0.55048145	0.83651778	0.17198474	-0.72190524	0.92483274	0.045767511	-0.59136973	1.3270579	-0.13779177	-0.58228	1.3162776	0.22038815	-0.65766491	1.3593617	0.043266429	-0.70473448	1.0311811	-0.19240518	-0.64566325	1.0098222	0.32441645	-0.58153235	0.81730942	-0.22281751	-0.41801541	0.89863644	0.31906397
136	0.54	-0.19799096	0.097512873	-0.065580958	-0.75556862	0.035242772	0.097685884	-0.32622418	0.092170982	-0.078233149	-0.88793744	0.072779863	0.10330266	-0.32312639	0.11018456	0.0060949328	-0.85660309	0.089357692	0.020069628	-0.38101205	0.041407369	-0.021602044	-0.93821955	0.05445312	0.034603809	-0.40358258	0.45671018	-0.085376122	-0.73984413	0.43156026	0.14824834	-0.41899835	0.44804348	0.03823967	-0.76173373	0.433514	0.016846992	-0.58913753	0.80363457	-0.13081719	-0.66258942	0.79163025	0.22090495	-0.52899477	0.84443146	-0.074254175	-0.54437189	0.83454099	0.172172	-0.71541049	0.92294624	0.045067083	-0.58488564	1.324807	-0.13791191	-0.57620053	1.3143858	0.22044214	-0.65170539	1.3578288	0.043015975	-0.69916374	1.029439	-0.19197151	-0.63828011	1.0077528	0.32498986	-0.57797342	0.81468254	-0.22332757	-0.40971033	0.89842122	0.31866539
